# xmcd
#
# Track frame offsets:
#	150
#	10962
#	21637
#	32387
#	45687
#	57577
#	70685
#	81415
#	93935
#	113457
#	122825
#	135032
#	148695
#	162672
#	177045
#
# Disc length: 2598 seconds
#
# Revision: 0
# Processed by: cddbd v1.4PL0 Copyright (c) Steve Scherf et al.
# Submitted via: EasyCDDAExtractor 4.6.0.1
#
DISCID=c40a240f
DTITLE=The 3 Tenors Of Bluegrass
DYEAR=2000
DGENRE=Bluegrass
TTITLE0=Cannonball Yodel
TTITLE1=Poison Love
TTITLE2=Hillbilly Fever
TTITLE3=I Still Write Your Name In The Sand
TTITLE4=Walkin' The Dog
TTITLE5=Old Flames Can't Hold A Candle To You
TTITLE6=Sunny Side Of The Mountain
TTITLE7=The Bluebirds Are Singing For Me
TTITLE8=Fraulein
TTITLE9=Georgia Pineywoods
TTITLE10=I'm A Stranger Here
TTITLE11=Take Me As I Am Or Let Me Go
TTITLE12=Medicine Spring
TTITLE13=Tragic Romance
TTITLE14=Katy Daly
EXTD=
EXTT0=
EXTT1=
EXTT2=
EXTT3=
EXTT4=
EXTT5=
EXTT6=
EXTT7=
EXTT8=
EXTT9=
EXTT10=
EXTT11=
EXTT12=
EXTT13=
EXTT14=
PLAYORDER=
